<svg xmlns="http://www.w3.org/2000/svg" viewBox="0 0 388.07 428.11"><defs><style>.cls-1{fill:#084887;}</style></defs><title>anchor_1</title><g id="Layer_2" data-name="Layer 2"><g id="Layer_1-2" data-name="Layer 1"><g id="Layer_2-2" data-name="Layer 2"><g id="Layer_1-2-2" data-name="Layer 1-2"><path class="cls-1" d="M191.7,428.11c-2.1-1.18-4.13-1.89-5.61-3.21-17.53-15.55-38.79-23.88-60.22-32.28-25.54-10-47.41-26-67.43-44.57a132.69,132.69,0,0,0-12.1-10.5c-13-9.46-17.78-8.46-26.16,5.91-2.68-2.36-5.62-4.24-7.62-6.84-17.6-22.91-16.49-72.85,2-95.32.52,0,1.27-.24,1.64,0C33.05,254,50,266.61,66.59,279.62a31.63,31.63,0,0,1,8.15,10.49c2.87,5.63,4.22,11-4.59,13.89-2.63.87-5.74,7.68-4.78,10.43,1.83,5.26,5.48,10.93,10,14a201.62,201.62,0,0,0,80.73,31.9c14.05,2.34,20.36-3.34,21-18.33.92-21.43,1.32-42.89,1.63-64.34.65-45.59,1.11-91.19,1.64-136.78V126.7h-81a67.36,67.36,0,0,1-1.44-7c-1.27-14.93,1.52-18.2,16.35-18.26,19.37-.09,38.75.14,58.12.23h9.15c0-8.61.4-16.32-.24-24-.19-2.24-3-4.8-5.17-6.26C160.2,61,153.45,44.33,158.64,27.56,163.71,11.19,179.85-.28,197.42,0c18.16.3,34,12.38,38.37,29.32,4.3,16.51-2.92,33.31-18.93,42.39-4.25,2.41-6.27,4.81-5.62,9.68a40.84,40.84,0,0,1,.17,9.82c-.89,8,2.78,10.37,10.32,10.31,20-.15,39.91.18,59.87.43,4.41.06,8.82.57,12.88.84a7.28,7.28,0,0,1,.69,1.4c2.63,22.6,1.54,23.82-21.42,23.84H212.59a28.66,28.66,0,0,0-1.16,5.35q-2,105.45-3.81,211c-.2,12.31,3.32,15.94,15.57,16.34a67.78,67.78,0,0,0,16.8-1.66c29.65-6.7,56.87-19.11,82.19-35.8,2-1.3,4.49-2.67,5.32-4.62,1.48-3.47,1.88-7.4,2.72-11.15-3.34-.69-6.67-1.5-10.05-2-1.07-.17-2.26.41-6.32,1.25,2.3-7.35,2.79-14.16,6.24-18.72,5.46-7.22,12.8-13.07,19.54-19.28,8.48-7.81,17.53-15,25.62-23.21,5.28-5.35,8.59-2.11,10.23,2,4.61,11.53,10.22,23.2,11.77,35.29,1.75,13.63.44,27.9-1.42,41.63-.89,6.5-6.17,12.41-9.39,18.45a20.74,20.74,0,0,1-3.11-1.33c-15.55-14.13-20.09-14.92-36.12-.69-27.51,24.44-59.67,39.9-93.93,51.83C221.68,400.16,209.55,408.49,191.7,428.11ZM196.43,19c-11-.18-19.62,7.94-19.59,18.55,0,10,8.49,18.39,18.85,18.62,10.66.24,19.6-8.33,19.57-18.76,0-10.25-8.24-18.25-18.83-18.4Z"/></g></g></g></g></svg>