<svg xmlns="http://www.w3.org/2000/svg" viewBox="0 0 450.79 545.6"><defs><style>.cls-1{fill:#fff;}</style></defs><title>anchor</title><g id="Layer_2" data-name="Layer 2"><g id="Layer_1-2" data-name="Layer 1"><path class="cls-1" d="M1.6,1H452.39v545.6H1.6ZM223.36,487c17.85-19.63,30-28,51.58-35.48,34.26-11.93,66.42-27.39,93.93-51.83,16-14.23,20.57-13.44,36.12.69.41.37,1.06.47,3.11,1.33,3.22-6,8.5-12,9.39-18.45,1.86-13.73,3.17-28,1.42-41.63-1.55-12.09-7.16-23.76-11.77-35.29-1.64-4.1-4.95-7.34-10.23-2-8.09,8.18-17.14,15.4-25.62,23.21-6.74,6.21-14.08,12.06-19.54,19.28-3.45,4.56-3.94,11.37-6.24,18.72,4.06-.84,5.25-1.42,6.32-1.25,3.38.52,6.71,1.33,10.05,2-.84,3.75-1.24,7.68-2.72,11.15-.83,1.95-3.35,3.32-5.32,4.62-25.32,16.69-52.54,29.1-82.19,35.8a67.4,67.4,0,0,1-16.8,1.66c-12.25-.4-15.77-4-15.57-16.34q1.74-105.48,3.81-210.95c0-1.66.7-3.3,1.16-5.35H305.4c23,0,24.05-1.24,21.42-23.84a7.75,7.75,0,0,0-.69-1.4c-4.06-.27-8.47-.78-12.88-.84-20-.25-39.92-.58-59.87-.43-7.54.06-11.21-2.35-10.32-10.31a40.85,40.85,0,0,0-.17-9.82c-.65-4.87,1.37-7.27,5.62-9.68,16-9.08,23.23-25.88,18.93-42.39-4.4-16.94-20.21-29-38.37-29.32-17.57-.29-33.71,11.18-38.78,27.55-5.19,16.77,1.56,33.43,17.47,43.9,2.21,1.46,5,4,5.17,6.26.64,7.63.24,15.34.24,23.95H204c-19.37-.09-38.75-.32-58.12-.23-14.83.06-17.62,3.33-16.35,18.26a67.54,67.54,0,0,0,1.44,7h81.07c0,5.36,0,9.77,0,14.18-.53,45.59-1,91.19-1.64,136.78-.31,21.45-.71,42.91-1.63,64.34-.64,15-6.95,20.67-21,18.33a201.48,201.48,0,0,1-80.73-31.9c-4.54-3.07-8.19-8.74-10-14-1-2.75,2.15-9.56,4.78-10.43,8.81-2.93,7.46-8.26,4.59-13.89a31.68,31.68,0,0,0-8.18-10.46c-16.61-13-33.54-25.61-50.39-38.32-.37-.27-1.12,0-1.64,0-18.51,22.47-19.62,72.41-2,95.32,2,2.6,4.94,4.48,7.62,6.84C60.17,388,64.94,387,78,396.44A134.57,134.57,0,0,1,90.1,407c20,18.59,41.89,34.57,67.43,44.57,21.43,8.4,42.69,16.73,60.22,32.28C219.23,485.12,221.26,485.83,223.36,487Z" transform="translate(-1.6 -1.03)"/><path d="M223.36,487c-2.1-1.18-4.13-1.89-5.61-3.21-17.53-15.55-38.79-23.88-60.22-32.28-25.54-10-47.41-26-67.43-44.57A134.57,134.57,0,0,0,78,396.44c-13-9.46-17.78-8.46-26.16,5.91-2.68-2.36-5.62-4.24-7.62-6.84-17.6-22.91-16.49-72.85,2-95.32.52,0,1.27-.24,1.64,0,16.85,12.71,33.78,25.31,50.39,38.32A31.68,31.68,0,0,1,106.4,349c2.87,5.63,4.22,11-4.59,13.89-2.63.87-5.74,7.68-4.78,10.43,1.83,5.26,5.48,10.93,10,14a201.48,201.48,0,0,0,80.73,31.9c14.05,2.34,20.36-3.34,21-18.33.92-21.43,1.32-42.89,1.63-64.34.65-45.59,1.11-91.19,1.64-136.78,0-4.41,0-8.82,0-14.18H131a67.54,67.54,0,0,1-1.44-7c-1.27-14.93,1.52-18.2,16.35-18.26,19.37-.09,38.75.14,58.12.23h9.15c0-8.61.4-16.32-.24-23.95-.19-2.24-3-4.8-5.17-6.26-15.91-10.47-22.66-27.13-17.47-43.9,5.07-16.37,21.21-27.84,38.78-27.55,18.16.3,34,12.38,38.37,29.32,4.3,16.51-2.92,33.31-18.93,42.39-4.25,2.41-6.27,4.81-5.62,9.68a40.85,40.85,0,0,1,.17,9.82c-.89,8,2.78,10.37,10.32,10.31,19.95-.15,39.91.18,59.87.43,4.41.06,8.82.57,12.88.84a7.75,7.75,0,0,1,.69,1.4c2.63,22.6,1.54,23.82-21.42,23.84H244.25c-.46,2-1.13,3.69-1.16,5.35q-2,105.46-3.81,211c-.2,12.31,3.32,15.94,15.57,16.34a67.4,67.4,0,0,0,16.8-1.66c29.65-6.7,56.87-19.11,82.19-35.8,2-1.3,4.49-2.67,5.32-4.62,1.48-3.47,1.88-7.4,2.72-11.15-3.34-.69-6.67-1.5-10.05-2-1.07-.17-2.26.41-6.32,1.25,2.3-7.35,2.79-14.16,6.24-18.72,5.46-7.22,12.8-13.07,19.54-19.28,8.48-7.81,17.53-15,25.62-23.21,5.28-5.35,8.59-2.11,10.23,2,4.61,11.53,10.22,23.2,11.77,35.29,1.75,13.63.44,27.9-1.42,41.63-.89,6.5-6.17,12.41-9.39,18.45-2.05-.86-2.7-1-3.11-1.33-15.55-14.13-20.09-14.92-36.12-.69-27.51,24.44-59.67,39.9-93.93,51.83C253.34,459.05,241.21,467.38,223.36,487Zm4.73-409.16c-11-.18-19.62,7.94-19.59,18.55,0,10,8.49,18.39,18.85,18.62,10.66.24,19.6-8.33,19.57-18.76C246.88,86,238.68,78,228.09,77.85Z" transform="translate(-1.6 -1.03)"/><path class="cls-1" d="M228.09,77.85c10.59.17,18.79,8.19,18.83,18.41,0,10.43-8.91,19-19.57,18.76-10.36-.23-18.82-8.58-18.85-18.62C208.47,85.79,217.05,77.67,228.09,77.85Z" transform="translate(-1.6 -1.03)"/></g></g></svg>